  0
SECTION
  2
HEADER
  9
$ACADVER
  1
AC1009
  9
$INSUNITS
 70
     1
 9
$MEASUREMENT
 70
    0
  0
ENDSEC
  0
SECTION
  2
TABLES
  0
TABLE
  2
LAYER
 70
     8
  0
LAYER
  2
0
 62
     7
 70
0
  6
CONTINUOUS
  0
LAYER
  2
1
 62
     1
 70
0
  6
CONTINUOUS
  0
LAYER
  2
2
 62
     2
 70
0
  6
CONTINUOUS
  0
LAYER
  2
3
 62
     3
 70
0
  6
CONTINUOUS
  0
LAYER
  2
4
 62
     4
 70
0
  6
CONTINUOUS
  0
LAYER
  2
5
 62
     5
 70
0
  6
CONTINUOUS
  0
LAYER
  2
6
 62
     6
 70
0
  6
CONTINUOUS
  0
LAYER
  2
7
 62
     7
 70
0
  6
CONTINUOUS
  0
ENDTAB
  0
TABLE
  2
STYLE
 70
     1
  0
STYLE
 70
     0
  2
STANDARD
  3
TXT
 40
0.00
 41
1.00
 42
1.00
 50
0.00
 71
     0
  0
ENDTAB
  0
ENDSEC
  0
SECTION
  2
BLOCKS
  0
BLOCK
  8
0
  2
EPAD
 70
0
 10
0.0
 20
0.0
  0
POLYLINE
  8
0
 66
1
 70
1
 40
0.5
 41
0.5
  0
VERTEX
  8
0
 10
-0.25
 20
0.0
 42
1.0
  0
VERTEX
  8
0
 10
0.25
 20
0.0
 42
1.0
  0
SEQEND
  8
0
  0
ENDBLK
  8
0
  0
BLOCK
  8
0
  2
RPAD
 70
0
 10
0.0
 20
0.0
  0
TRACE
  8
0
 10
-0.5
 20
-0.5
 11
-0.5
 21
0.5
 12
0.5
 22
-0.5
 13
0.5
 23
0.5
  0
ENDBLK
  8
0
  0
ENDSEC
0
SECTION
2
ENTITIES
0
POLYLINE
8
1
66
1
40
0.016000
41
0.016000
0
VERTEX
8
1
10
-3.100000
20
-0.100000
0
VERTEX
8
1
10
-3.200000
20
-0.200000
0
SEQEND
8
1
0
POLYLINE
8
1
66
1
40
0.016000
41
0.016000
0
VERTEX
8
1
10
-2.100000
20
0.200000
0
VERTEX
8
1
10
-2.100000
20
0.200000
0
SEQEND
8
1
0
POLYLINE
8
1
66
1
40
0.016000
41
0.016000
0
VERTEX
8
1
10
-2.300000
20
0.200000
0
VERTEX
8
1
10
-2.300000
20
0.200000
0
SEQEND
8
1
0
POLYLINE
8
1
66
1
40
0.016000
41
0.016000
0
VERTEX
8
1
10
-2.200000
20
-0.500000
0
VERTEX
8
1
10
-2.200000
20
-0.500000
0
SEQEND
8
1
0
POLYLINE
8
1
66
1
40
0.016000
41
0.016000
0
VERTEX
8
1
10
-3.700000
20
-0.300000
0
VERTEX
8
1
10
-3.700000
20
-0.400000
0
SEQEND
8
1
0
POLYLINE
8
1
66
1
40
0.016000
41
0.016000
0
VERTEX
8
1
10
-3.700000
20
-0.200000
0
VERTEX
8
1
10
-3.700000
20
-0.400000
0
SEQEND
8
1
0
POLYLINE
8
1
66
1
40
0.016000
41
0.016000
0
VERTEX
8
1
10
-2.700000
20
-0.300000
0
VERTEX
8
1
10
-2.800000
20
-0.300000
0
VERTEX
8
1
10
-2.800000
20
-0.300000
0
SEQEND
8
1
0
POLYLINE
8
1
66
1
40
0.016000
41
0.016000
0
VERTEX
8
1
10
-2.800000
20
-0.400000
0
VERTEX
8
1
10
-2.800000
20
-0.300000
0
SEQEND
8
1
0
POLYLINE
8
1
66
1
40
0.016000
41
0.016000
0
VERTEX
8
1
10
-2.800000
20
0.000000
0
VERTEX
8
1
10
-2.800000
20
0.000000
0
SEQEND
8
1
0
POLYLINE
8
1
66
1
40
0.016000
41
0.016000
0
VERTEX
8
1
10
-2.700000
20
0.000000
0
VERTEX
8
1
10
-2.800000
20
0.000000
0
SEQEND
8
1
0
POLYLINE
8
1
66
1
40
0.016000
41
0.016000
0
VERTEX
8
1
10
-3.500000
20
-0.400000
0
VERTEX
8
1
10
-3.500000
20
-0.400000
0
VERTEX
8
1
10
-3.700000
20
-0.300000
0
VERTEX
8
1
10
-3.700000
20
-0.200000
0
SEQEND
8
1
0
POLYLINE
8
1
66
1
40
0.016000
41
0.016000
0
VERTEX
8
1
10
-3.400000
20
-0.400000
0
VERTEX
8
1
10
-3.700000
20
-0.200000
0
SEQEND
8
1
0
POLYLINE
8
1
66
1
40
0.016000
41
0.016000
0
VERTEX
8
1
10
-2.800000
20
0.000000
0
VERTEX
8
1
10
-3.200000
20
0.000000
0
VERTEX
8
1
10
-3.200000
20
0.000000
0
SEQEND
8
1
0
POLYLINE
8
1
66
1
40
0.016000
41
0.016000
0
VERTEX
8
1
10
-3.700000
20
-0.200000
0
VERTEX
8
1
10
-3.700000
20
-0.100000
0
VERTEX
8
1
10
-3.700000
20
-0.100000
0
SEQEND
8
1
0
POLYLINE
8
1
66
1
40
0.016000
41
0.016000
0
VERTEX
8
1
10
-3.700000
20
-0.200000
0
VERTEX
8
1
10
-3.700000
20
-0.100000
0
VERTEX
8
1
10
-3.700000
20
-0.100000
0
VERTEX
8
1
10
-3.700000
20
-0.100000
0
SEQEND
8
1
0
POLYLINE
8
1
66
1
40
0.016000
41
0.016000
0
VERTEX
8
1
10
-3.700000
20
-0.400000
0
VERTEX
8
1
10
-4.000000
20
-1.000000
0
VERTEX
8
1
10
-4.000000
20
-1.000000
0
SEQEND
8
1
0
POLYLINE
8
1
66
1
40
0.016000
41
0.016000
0
VERTEX
8
1
10
-3.700000
20
-0.100000
0
VERTEX
8
1
10
-4.000000
20
-0.600000
0
SEQEND
8
1
0
POLYLINE
8
1
66
1
40
0.016000
41
0.016000
0
VERTEX
8
1
10
-3.200000
20
0.000000
0
VERTEX
8
1
10
-4.000000
20
0.400000
0
VERTEX
8
1
10
-4.000000
20
0.400000
0
SEQEND
8
1
0
POLYLINE
8
1
66
1
40
0.016000
41
0.016000
0
VERTEX
8
1
10
-3.700000
20
-0.100000
0
VERTEX
8
1
10
-3.700000
20
0.000000
0
VERTEX
8
1
10
-4.000000
20
0.000000
0
SEQEND
8
1
0
POLYLINE
8
1
66
1
40
0.016000
41
0.016000
0
VERTEX
8
1
10
-1.500000
20
-0.400000
0
VERTEX
8
1
10
-1.400000
20
-0.400000
0
SEQEND
8
1
0
POLYLINE
8
1
66
1
40
0.016000
41
0.016000
0
VERTEX
8
1
10
-1.700000
20
-0.300000
0
VERTEX
8
1
10
-1.400000
20
-0.300000
0
SEQEND
8
1
0
POLYLINE
8
1
66
1
40
0.016000
41
0.016000
0
VERTEX
8
1
10
-1.500000
20
-0.200000
0
VERTEX
8
1
10
-1.400000
20
-0.200000
0
SEQEND
8
1
0
POLYLINE
8
1
66
1
40
0.016000
41
0.016000
0
VERTEX
8
1
10
-4.300000
20
-0.200000
0
VERTEX
8
1
10
-4.500000
20
-0.200000
0
SEQEND
8
1
0
POLYLINE
8
1
66
1
40
0.016000
41
0.016000
0
VERTEX
8
1
10
-4.300000
20
-0.300000
0
VERTEX
8
1
10
-4.500000
20
-0.300000
0
SEQEND
8
1
0
POLYLINE
8
1
66
1
40
0.016000
41
0.016000
0
VERTEX
8
1
10
-4.300000
20
-0.400000
0
VERTEX
8
1
10
-4.500000
20
-0.400000
0
SEQEND
8
1
0
POLYLINE
8
2
66
1
40
0.016000
41
0.016000
0
VERTEX
8
2
10
-3.300000
20
-0.400000
0
VERTEX
8
2
10
-3.250000
20
-0.300000
0
VERTEX
8
2
10
-3.200000
20
-0.350000
0
VERTEX
8
2
10
-3.300000
20
-0.400000
0
SEQEND
8
2
0
POLYLINE
8
2
66
1
40
0.016000
41
0.016000
0
VERTEX
8
2
10
-3.250000
20
-0.250000
0
VERTEX
8
2
10
-2.950000
20
-0.250000
0
VERTEX
8
2
10
-2.950000
20
-0.200000
0
VERTEX
8
2
10
-3.250000
20
-0.200000
0
VERTEX
8
2
10
-3.250000
20
-0.250000
0
SEQEND
8
2
0
POLYLINE
8
2
66
1
40
0.016000
41
0.016000
0
VERTEX
8
2
10
-3.050000
20
-0.250000
0
VERTEX
8
2
10
-2.900000
20
-0.400000
0
SEQEND
8
2
0
POLYLINE
8
2
66
1
40
0.016000
41
0.016000
0
VERTEX
8
2
10
-3.150000
20
-0.250000
0
VERTEX
8
2
10
-3.220000
20
-0.320000
0
SEQEND
8
2
0
POLYLINE
8
2
66
1
40
0.016000
41
0.016000
0
VERTEX
8
2
10
-3.100000
20
-0.100000
0
VERTEX
8
2
10
-3.100000
20
-0.200000
0
SEQEND
8
2
0
POLYLINE
8
2
66
1
40
0.016000
41
0.016000
0
VERTEX
8
2
10
-2.800000
20
-0.400000
0
VERTEX
8
2
10
-2.900000
20
-0.400000
0
SEQEND
8
2
0
POLYLINE
8
2
66
1
40
0.016000
41
0.016000
0
VERTEX
8
2
10
-3.400000
20
-0.400000
0
VERTEX
8
2
10
-3.300000
20
-0.400000
0
SEQEND
8
2
0
TEXT
8
0
10
-3.308000
20
-0.543000
40
0.120000
41
0.666667
1
Q1
0
TEXT
8
0
10
-3.308000
20
-0.648000
40
0.080000
41
1.000000
1
BC547
0
POLYLINE
8
2
66
1
40
0.016000
41
0.016000
0
VERTEX
8
2
10
-3.600000
20
-0.240000
0
VERTEX
8
2
10
-3.300000
20
-0.240000
0
VERTEX
8
2
10
-3.300000
20
-0.160000
0
VERTEX
8
2
10
-3.600000
20
-0.160000
0
VERTEX
8
2
10
-3.600000
20
-0.240000
0
SEQEND
8
2
0
POLYLINE
8
2
66
1
40
0.016000
41
0.016000
0
VERTEX
8
2
10
-3.700000
20
-0.200000
0
VERTEX
8
2
10
-3.600000
20
-0.200000
0
SEQEND
8
2
0
TEXT
8
0
10
-3.780000
20
-0.190000
40
0.080000
41
1.000000
1
1
0
POLYLINE
8
2
66
1
40
0.016000
41
0.016000
0
VERTEX
8
2
10
-3.200000
20
-0.200000
0
VERTEX
8
2
10
-3.300000
20
-0.200000
0
SEQEND
8
2
0
TEXT
8
0
10
-3.200000
20
-0.190000
40
0.080000
41
1.000000
1
2
0
TEXT
8
0
10
-3.608000
20
-0.137000
40
0.120000
41
0.666667
1
R1
0
TEXT
8
0
10
-3.608000
20
-0.338000
40
0.080000
41
1.000000
1
1k
0
POLYLINE
8
2
66
1
40
0.016000
41
0.016000
0
VERTEX
8
2
10
-2.900000
20
-0.200000
0
VERTEX
8
2
10
-2.700000
20
-0.200000
0
VERTEX
8
2
10
-2.800000
20
-0.100000
0
VERTEX
8
2
10
-2.900000
20
-0.200000
0
SEQEND
8
2
0
POLYLINE
8
2
66
1
40
0.016000
41
0.016000
0
VERTEX
8
2
10
-2.900000
20
-0.100000
0
VERTEX
8
2
10
-2.700000
20
-0.100000
0
SEQEND
8
2
0
POLYLINE
8
2
66
1
40
0.016000
41
0.016000
0
VERTEX
8
2
10
-2.800000
20
-0.300000
0
VERTEX
8
2
10
-2.800000
20
-0.200000
0
SEQEND
8
2
0
POLYLINE
8
2
66
1
40
0.016000
41
0.016000
0
VERTEX
8
2
10
-2.800000
20
0.000000
0
VERTEX
8
2
10
-2.800000
20
-0.100000
0
SEQEND
8
2
0
TEXT
8
0
10
-2.642000
20
-0.227000
40
0.120000
41
0.666667
1
D1
0
TEXT
8
0
10
-2.642000
20
-0.332000
40
0.080000
41
1.000000
1
DIODE
0
POLYLINE
8
3
66
1
40
0.008000
41
0.008000
0
VERTEX
8
3
10
-2.820000
20
-0.320000
0
VERTEX
8
3
10
-2.780000
20
-0.320000
0
VERTEX
8
3
10
-2.780000
20
-0.280000
0
VERTEX
8
3
10
-2.820000
20
-0.280000
0
VERTEX
8
3
10
-2.820000
20
-0.320000
0
SEQEND
8
3
0
POLYLINE
8
3
66
1
40
0.008000
41
0.008000
0
VERTEX
8
3
10
-2.840000
20
-0.300000
0
VERTEX
8
3
10
-2.760000
20
-0.300000
0
SEQEND
8
3
0
POLYLINE
8
3
66
1
40
0.008000
41
0.008000
0
VERTEX
8
3
10
-2.800000
20
-0.260000
0
VERTEX
8
3
10
-2.800000
20
-0.340000
0
SEQEND
8
3
0
CIRCLE
8
1
10
-3.360000
20
0.000000
40
0.040000
0
POLYLINE
8
1
66
1
40
0.016000
41
0.016000
0
VERTEX
8
1
10
-3.320000
20
0.000000
0
VERTEX
8
1
10
-3.200000
20
0.000000
0
SEQEND
8
1
0
TEXT
8
0
10
-3.690000
20
-0.040000
40
0.080000
41
1.000000
1
VCC
0
CIRCLE
8
1
10
-3.700000
20
-0.460000
40
0.040000
0
POLYLINE
8
1
66
1
40
0.016000
41
0.016000
0
VERTEX
8
1
10
-3.700000
20
-0.420000
0
VERTEX
8
1
10
-3.700000
20
-0.300000
0
SEQEND
8
1
0
TEXT
8
0
10
-3.660000
20
-0.710000
40
0.080000
41
1.000000
50
90.000000
1
IN
0
CIRCLE
8
1
10
-3.340000
20
-0.400000
40
0.040000
0
POLYLINE
8
1
66
1
40
0.016000
41
0.016000
0
VERTEX
8
1
10
-3.380000
20
-0.400000
0
VERTEX
8
1
10
-3.500000
20
-0.400000
0
SEQEND
8
1
0
TEXT
8
0
10
-3.250000
20
-0.440000
40
0.080000
41
1.000000
1
GND
0
CIRCLE
8
1
10
-2.100000
20
0.040000
40
0.040000
0
POLYLINE
8
1
66
1
40
0.016000
41
0.016000
0
VERTEX
8
1
10
-2.100000
20
0.080000
0
VERTEX
8
1
10
-2.100000
20
0.200000
0
SEQEND
8
1
0
TEXT
8
0
10
-2.060000
20
-0.210000
40
0.080000
41
1.000000
50
90.000000
1
NO
0
POLYLINE
8
4
66
1
40
0.020000
41
0.020000
0
VERTEX
8
4
10
-2.190000
20
-0.280000
0
VERTEX
8
4
10
-2.110000
20
0.010000
0
SEQEND
8
4
0
CIRCLE
8
2
10
-2.200000
20
-0.310000
40
0.020000
0
CIRCLE
8
2
10
-2.100000
20
0.030000
40
0.020000
0
POLYLINE
8
2
66
1
40
0.016000
41
0.016000
0
VERTEX
8
2
10
-2.100000
20
0.050000
0
VERTEX
8
2
10
-2.100000
20
0.100000
0
SEQEND
8
2
0
CIRCLE
8
2
10
-2.300000
20
0.030000
40
0.020000
0
POLYLINE
8
2
66
1
40
0.016000
41
0.016000
0
VERTEX
8
2
10
-2.300000
20
0.050000
0
VERTEX
8
2
10
-2.300000
20
0.100000
0
SEQEND
8
2
0
POLYLINE
8
2
66
1
40
0.016000
41
0.016000
0
VERTEX
8
2
10
-2.200000
20
-0.400000
0
VERTEX
8
2
10
-2.200000
20
-0.330000
0
SEQEND
8
2
0
POLYLINE
8
2
66
1
40
0.016000
41
0.016000
0
VERTEX
8
2
10
-2.500000
20
-0.050000
0
VERTEX
8
2
10
-2.502246
20
-0.039238
0
VERTEX
8
2
10
-2.508594
20
-0.029531
0
VERTEX
8
2
10
-2.518457
20
-0.020996
0
VERTEX
8
2
10
-2.531250
20
-0.013750
0
VERTEX
8
2
10
-2.546387
20
-0.007910
0
VERTEX
8
2
10
-2.563281
20
-0.003594
0
VERTEX
8
2
10
-2.581348
20
-0.000918
0
VERTEX
8
2
10
-2.600000
20
0.000000
0
SEQEND
8
2
0
POLYLINE
8
2
66
1
40
0.016000
41
0.016000
0
VERTEX
8
2
10
-2.500000
20
-0.050000
0
VERTEX
8
2
10
-2.502246
20
-0.057891
0
VERTEX
8
2
10
-2.508594
20
-0.066250
0
VERTEX
8
2
10
-2.518457
20
-0.074609
0
VERTEX
8
2
10
-2.531250
20
-0.082500
0
VERTEX
8
2
10
-2.546387
20
-0.089453
0
VERTEX
8
2
10
-2.563281
20
-0.095000
0
VERTEX
8
2
10
-2.581348
20
-0.098672
0
VERTEX
8
2
10
-2.600000
20
-0.100000
0
SEQEND
8
2
0
POLYLINE
8
2
66
1
40
0.016000
41
0.016000
0
VERTEX
8
2
10
-2.500000
20
-0.150000
0
VERTEX
8
2
10
-2.502246
20
-0.139238
0
VERTEX
8
2
10
-2.508594
20
-0.129531
0
VERTEX
8
2
10
-2.518457
20
-0.120996
0
VERTEX
8
2
10
-2.531250
20
-0.113750
0
VERTEX
8
2
10
-2.546387
20
-0.107910
0
VERTEX
8
2
10
-2.563281
20
-0.103594
0
VERTEX
8
2
10
-2.581348
20
-0.100918
0
VERTEX
8
2
10
-2.600000
20
-0.100000
0
SEQEND
8
2
0
POLYLINE
8
2
66
1
40
0.016000
41
0.016000
0
VERTEX
8
2
10
-2.500000
20
-0.150000
0
VERTEX
8
2
10
-2.502246
20
-0.157891
0
VERTEX
8
2
10
-2.508594
20
-0.166250
0
VERTEX
8
2
10
-2.518457
20
-0.174609
0
VERTEX
8
2
10
-2.531250
20
-0.182500
0
VERTEX
8
2
10
-2.546387
20
-0.189453
0
VERTEX
8
2
10
-2.563281
20
-0.195000
0
VERTEX
8
2
10
-2.581348
20
-0.198672
0
VERTEX
8
2
10
-2.600000
20
-0.200000
0
SEQEND
8
2
0
POLYLINE
8
2
66
1
40
0.016000
41
0.016000
0
VERTEX
8
2
10
-2.500000
20
-0.250000
0
VERTEX
8
2
10
-2.502246
20
-0.239238
0
VERTEX
8
2
10
-2.508594
20
-0.229531
0
VERTEX
8
2
10
-2.518457
20
-0.220996
0
VERTEX
8
2
10
-2.531250
20
-0.213750
0
VERTEX
8
2
10
-2.546387
20
-0.207910
0
VERTEX
8
2
10
-2.563281
20
-0.203594
0
VERTEX
8
2
10
-2.581348
20
-0.200918
0
VERTEX
8
2
10
-2.600000
20
-0.200000
0
SEQEND
8
2
0
POLYLINE
8
2
66
1
40
0.016000
41
0.016000
0
VERTEX
8
2
10
-2.500000
20
-0.250000
0
VERTEX
8
2
10
-2.502246
20
-0.257891
0
VERTEX
8
2
10
-2.508594
20
-0.266250
0
VERTEX
8
2
10
-2.518457
20
-0.274609
0
VERTEX
8
2
10
-2.531250
20
-0.282500
0
VERTEX
8
2
10
-2.546387
20
-0.289453
0
VERTEX
8
2
10
-2.563281
20
-0.295000
0
VERTEX
8
2
10
-2.581348
20
-0.298672
0
VERTEX
8
2
10
-2.600000
20
-0.300000
0
SEQEND
8
2
0
POLYLINE
8
2
66
1
40
0.016000
41
0.016000
0
VERTEX
8
2
10
-2.450000
20
0.050000
0
VERTEX
8
2
10
-2.450000
20
-0.350000
0
SEQEND
8
2
0
POLYLINE
8
2
66
1
40
0.016000
41
0.016000
0
VERTEX
8
2
10
-2.400000
20
0.050000
0
VERTEX
8
2
10
-2.400000
20
-0.350000
0
SEQEND
8
2
0
POLYLINE
8
2
66
1
40
0.016000
41
0.016000
0
VERTEX
8
2
10
-2.200000
20
-0.500000
0
VERTEX
8
2
10
-2.200000
20
-0.400000
0
SEQEND
8
2
0
POLYLINE
8
2
66
1
40
0.016000
41
0.016000
0
VERTEX
8
2
10
-2.100000
20
0.200000
0
VERTEX
8
2
10
-2.100000
20
0.100000
0
SEQEND
8
2
0
POLYLINE
8
2
66
1
40
0.016000
41
0.016000
0
VERTEX
8
2
10
-2.300000
20
0.200000
0
VERTEX
8
2
10
-2.300000
20
0.100000
0
SEQEND
8
2
0
POLYLINE
8
2
66
1
40
0.016000
41
0.016000
0
VERTEX
8
2
10
-2.700000
20
0.000000
0
VERTEX
8
2
10
-2.600000
20
0.000000
0
SEQEND
8
2
0
POLYLINE
8
2
66
1
40
0.016000
41
0.016000
0
VERTEX
8
2
10
-2.700000
20
-0.300000
0
VERTEX
8
2
10
-2.600000
20
-0.300000
0
SEQEND
8
2
0
TEXT
8
0
10
-2.022000
20
-0.027000
40
0.120000
41
0.666667
1
RL1
0
TEXT
8
0
10
-2.022000
20
-0.132000
40
0.080000
41
1.000000
1
6V
0
CIRCLE
8
1
10
-2.300000
20
0.040000
40
0.040000
0
POLYLINE
8
1
66
1
40
0.016000
41
0.016000
0
VERTEX
8
1
10
-2.300000
20
0.080000
0
VERTEX
8
1
10
-2.300000
20
0.200000
0
SEQEND
8
1
0
TEXT
8
0
10
-2.260000
20
-0.210000
40
0.080000
41
1.000000
50
90.000000
1
NC
0
CIRCLE
8
1
10
-2.200000
20
-0.340000
40
0.040000
0
POLYLINE
8
1
66
1
40
0.016000
41
0.016000
0
VERTEX
8
1
10
-2.200000
20
-0.380000
0
VERTEX
8
1
10
-2.200000
20
-0.500000
0
SEQEND
8
1
0
TEXT
8
0
10
-2.160000
20
-0.250000
40
0.080000
41
1.000000
50
90.000000
1
COM
0
CIRCLE
8
1
10
-3.700000
20
-0.400000
40
0.020000
0
CIRCLE
8
1
10
-2.800000
20
-0.300000
40
0.020000
0
CIRCLE
8
1
10
-2.800000
20
0.000000
40
0.020000
0
CIRCLE
8
1
10
-3.700000
20
-0.200000
40
0.020000
0
CIRCLE
8
1
10
-3.200000
20
0.000000
40
0.020000
0
CIRCLE
8
1
10
-3.700000
20
-0.100000
40
0.020000
0
CIRCLE
8
1
10
-3.700000
20
-0.100000
40
0.020000
0
POLYLINE
8
2
66
1
40
0.016000
41
0.016000
0
VERTEX
8
2
10
-4.300000
20
-1.100000
0
VERTEX
8
2
10
-1.600000
20
-1.100000
0
VERTEX
8
2
10
-1.600000
20
0.500000
0
VERTEX
8
2
10
-4.300000
20
0.500000
0
VERTEX
8
2
10
-4.300000
20
-1.100000
0
SEQEND
8
2
0
CIRCLE
8
2
10
-4.000000
20
-0.800000
40
0.120000
0
POLYLINE
8
2
66
1
40
0.015000
41
0.015000
0
VERTEX
8
2
10
-4.050000
20
-0.750000
0
VERTEX
8
2
10
-3.950000
20
-0.750000
0
SEQEND
8
2
0
POLYLINE
8
2
66
1
40
0.016000
41
0.016000
0
VERTEX
8
2
10
-4.000000
20
-0.900000
0
VERTEX
8
2
10
-4.000000
20
-0.830000
0
SEQEND
8
2
0
POLYLINE
8
2
66
1
40
0.016000
41
0.016000
0
VERTEX
8
2
10
-4.000000
20
-0.750000
0
VERTEX
8
2
10
-4.000000
20
-0.700000
0
SEQEND
8
2
0
POLYLINE
8
2
66
1
40
0.015000
41
0.015000
0
VERTEX
8
2
10
-4.000000
20
-0.750000
0
VERTEX
8
2
10
-3.940000
20
-0.830000
0
VERTEX
8
2
10
-4.060000
20
-0.830000
0
VERTEX
8
2
10
-4.000000
20
-0.750000
0
SEQEND
8
2
0
POLYLINE
8
2
66
1
40
0.016000
41
0.016000
0
VERTEX
8
2
10
-4.000000
20
-1.000000
0
VERTEX
8
2
10
-4.000000
20
-0.900000
0
SEQEND
8
2
0
TEXT
8
0
10
-4.010000
20
-1.080000
40
0.080000
41
1.000000
50
90.000000
1
A
0
POLYLINE
8
2
66
1
40
0.016000
41
0.016000
0
VERTEX
8
2
10
-4.000000
20
-0.600000
0
VERTEX
8
2
10
-4.000000
20
-0.700000
0
SEQEND
8
2
0
TEXT
8
0
10
-4.010000
20
-0.600000
40
0.080000
41
1.000000
50
90.000000
1
K
0
TEXT
8
0
10
-3.822000
20
-0.807000
40
0.120000
41
0.666667
1
SIGNAL
0
CIRCLE
8
2
10
-4.000000
20
0.200000
40
0.120000
0
POLYLINE
8
2
66
1
40
0.015000
41
0.015000
0
VERTEX
8
2
10
-3.950000
20
0.150000
0
VERTEX
8
2
10
-4.050000
20
0.150000
0
SEQEND
8
2
0
POLYLINE
8
2
66
1
40
0.016000
41
0.016000
0
VERTEX
8
2
10
-4.000000
20
0.300000
0
VERTEX
8
2
10
-4.000000
20
0.230000
0
SEQEND
8
2
0
POLYLINE
8
2
66
1
40
0.016000
41
0.016000
0
VERTEX
8
2
10
-4.000000
20
0.150000
0
VERTEX
8
2
10
-4.000000
20
0.100000
0
SEQEND
8
2
0
POLYLINE
8
2
66
1
40
0.015000
41
0.015000
0
VERTEX
8
2
10
-4.000000
20
0.150000
0
VERTEX
8
2
10
-4.060000
20
0.230000
0
VERTEX
8
2
10
-3.940000
20
0.230000
0
VERTEX
8
2
10
-4.000000
20
0.150000
0
SEQEND
8
2
0
POLYLINE
8
2
66
1
40
0.016000
41
0.016000
0
VERTEX
8
2
10
-4.000000
20
0.400000
0
VERTEX
8
2
10
-4.000000
20
0.300000
0
SEQEND
8
2
0
TEXT
8
0
10
-3.910000
20
0.400000
40
0.080000
41
1.000000
50
90.000000
1
A
0
POLYLINE
8
2
66
1
40
0.016000
41
0.016000
0
VERTEX
8
2
10
-4.000000
20
0.000000
0
VERTEX
8
2
10
-4.000000
20
0.100000
0
SEQEND
8
2
0
TEXT
8
0
10
-3.910000
20
-0.080000
40
0.080000
41
1.000000
50
90.000000
1
K
0
TEXT
8
0
10
-3.822000
20
0.193000
40
0.120000
41
0.666667
1
POWER
0
POLYLINE
8
1
66
1
40
0.016000
41
0.016000
0
VERTEX
8
1
10
-3.000000
20
-0.800000
0
VERTEX
8
1
10
-2.000000
20
-0.800000
0
VERTEX
8
1
10
-2.000000
20
0.200000
0
VERTEX
8
1
10
-3.000000
20
0.200000
0
VERTEX
8
1
10
-3.000000
20
-0.800000
0
SEQEND
8
1
0
CIRCLE
8
1
10
-1.660000
20
-0.200000
40
0.040000
0
POLYLINE
8
1
66
1
40
0.016000
41
0.016000
0
VERTEX
8
1
10
-1.620000
20
-0.200000
0
VERTEX
8
1
10
-1.500000
20
-0.200000
0
SEQEND
8
1
0
TEXT
8
0
10
-1.810000
20
-0.040000
40
0.080000
41
1.000000
1
NC
0
CIRCLE
8
1
10
-1.700000
20
-0.460000
40
0.040000
0
POLYLINE
8
1
66
1
40
0.016000
41
0.016000
0
VERTEX
8
1
10
-1.700000
20
-0.420000
0
VERTEX
8
1
10
-1.700000
20
-0.300000
0
SEQEND
8
1
0
TEXT
8
0
10
-1.860000
20
-0.490000
40
0.080000
41
1.000000
50
90.000000
1
COM
0
CIRCLE
8
1
10
-1.660000
20
-0.400000
40
0.040000
0
POLYLINE
8
1
66
1
40
0.016000
41
0.016000
0
VERTEX
8
1
10
-1.620000
20
-0.400000
0
VERTEX
8
1
10
-1.500000
20
-0.400000
0
SEQEND
8
1
0
TEXT
8
0
10
-1.810000
20
-0.640000
40
0.080000
41
1.000000
1
NO
0
POLYLINE
8
2
66
1
40
0.016000
41
0.016000
0
VERTEX
8
2
10
-1.800000
20
-0.500000
0
VERTEX
8
2
10
-1.600000
20
-0.500000
0
VERTEX
8
2
10
-1.600000
20
-0.100000
0
VERTEX
8
2
10
-1.800000
20
-0.100000
0
VERTEX
8
2
10
-1.800000
20
-0.500000
0
SEQEND
8
2
0
POLYLINE
8
2
66
1
40
0.016000
41
0.016000
0
VERTEX
8
2
10
-1.670000
20
-0.400000
0
VERTEX
8
2
10
-1.600000
20
-0.400000
0
SEQEND
8
2
0
CIRCLE
8
2
10
-1.700000
20
-0.400000
40
0.030000
0
POLYLINE
8
2
66
1
40
0.016000
41
0.016000
0
VERTEX
8
2
10
-1.670000
20
-0.300000
0
VERTEX
8
2
10
-1.600000
20
-0.300000
0
SEQEND
8
2
0
CIRCLE
8
2
10
-1.700000
20
-0.300000
40
0.030000
0
POLYLINE
8
2
66
1
40
0.016000
41
0.016000
0
VERTEX
8
2
10
-1.670000
20
-0.200000
0
VERTEX
8
2
10
-1.600000
20
-0.200000
0
SEQEND
8
2
0
CIRCLE
8
2
10
-1.700000
20
-0.200000
40
0.030000
0
POLYLINE
8
2
66
1
40
0.016000
41
0.016000
0
VERTEX
8
2
10
-1.400000
20
-0.400000
0
VERTEX
8
2
10
-1.600000
20
-0.400000
0
SEQEND
8
2
0
TEXT
8
0
10
-1.500000
20
-0.390000
40
0.080000
41
1.000000
1
1
0
POLYLINE
8
2
66
1
40
0.016000
41
0.016000
0
VERTEX
8
2
10
-1.400000
20
-0.300000
0
VERTEX
8
2
10
-1.600000
20
-0.300000
0
SEQEND
8
2
0
TEXT
8
0
10
-1.500000
20
-0.290000
40
0.080000
41
1.000000
1
2
0
POLYLINE
8
2
66
1
40
0.016000
41
0.016000
0
VERTEX
8
2
10
-1.400000
20
-0.200000
0
VERTEX
8
2
10
-1.600000
20
-0.200000
0
SEQEND
8
2
0
TEXT
8
0
10
-1.500000
20
-0.190000
40
0.080000
41
1.000000
1
3
0
TEXT
8
0
10
-2.508000
20
-1.098000
40
0.080000
41
1.000000
1
PACKAGE=TBLOCK-M3
0
CIRCLE
8
1
10
-4.140000
20
-0.200000
40
0.040000
0
POLYLINE
8
1
66
1
40
0.016000
41
0.016000
0
VERTEX
8
1
10
-4.180000
20
-0.200000
0
VERTEX
8
1
10
-4.300000
20
-0.200000
0
SEQEND
8
1
0
TEXT
8
0
10
-4.050000
20
-0.240000
40
0.080000
41
1.000000
1
VCC
0
CIRCLE
8
1
10
-4.140000
20
-0.300000
40
0.040000
0
POLYLINE
8
1
66
1
40
0.016000
41
0.016000
0
VERTEX
8
1
10
-4.180000
20
-0.300000
0
VERTEX
8
1
10
-4.300000
20
-0.300000
0
SEQEND
8
1
0
TEXT
8
0
10
-4.050000
20
-0.340000
40
0.080000
41
1.000000
1
GND
0
CIRCLE
8
1
10
-4.140000
20
-0.400000
40
0.040000
0
POLYLINE
8
1
66
1
40
0.016000
41
0.016000
0
VERTEX
8
1
10
-4.180000
20
-0.400000
0
VERTEX
8
1
10
-4.300000
20
-0.400000
0
SEQEND
8
1
0
TEXT
8
0
10
-4.050000
20
-0.440000
40
0.080000
41
1.000000
1
IN
0
POLYLINE
8
2
66
1
40
0.016000
41
0.016000
0
VERTEX
8
2
10
-4.300000
20
-0.500000
0
VERTEX
8
2
10
-4.100000
20
-0.500000
0
VERTEX
8
2
10
-4.100000
20
-0.100000
0
VERTEX
8
2
10
-4.300000
20
-0.100000
0
VERTEX
8
2
10
-4.300000
20
-0.500000
0
SEQEND
8
2
0
POLYLINE
8
2
66
1
40
0.016000
41
0.016000
0
VERTEX
8
2
10
-4.230000
20
-0.200000
0
VERTEX
8
2
10
-4.300000
20
-0.200000
0
SEQEND
8
2
0
CIRCLE
8
2
10
-4.200000
20
-0.200000
40
0.030000
0
POLYLINE
8
2
66
1
40
0.016000
41
0.016000
0
VERTEX
8
2
10
-4.230000
20
-0.300000
0
VERTEX
8
2
10
-4.300000
20
-0.300000
0
SEQEND
8
2
0
CIRCLE
8
2
10
-4.200000
20
-0.300000
40
0.030000
0
POLYLINE
8
2
66
1
40
0.016000
41
0.016000
0
VERTEX
8
2
10
-4.230000
20
-0.400000
0
VERTEX
8
2
10
-4.300000
20
-0.400000
0
SEQEND
8
2
0
CIRCLE
8
2
10
-4.200000
20
-0.400000
40
0.030000
0
POLYLINE
8
2
66
1
40
0.016000
41
0.016000
0
VERTEX
8
2
10
-4.500000
20
-0.200000
0
VERTEX
8
2
10
-4.300000
20
-0.200000
0
SEQEND
8
2
0
TEXT
8
0
10
-4.480000
20
-0.190000
40
0.080000
41
1.000000
1
1
0
POLYLINE
8
2
66
1
40
0.016000
41
0.016000
0
VERTEX
8
2
10
-4.500000
20
-0.300000
0
VERTEX
8
2
10
-4.300000
20
-0.300000
0
SEQEND
8
2
0
TEXT
8
0
10
-4.480000
20
-0.290000
40
0.080000
41
1.000000
1
2
0
POLYLINE
8
2
66
1
40
0.016000
41
0.016000
0
VERTEX
8
2
10
-4.500000
20
-0.400000
0
VERTEX
8
2
10
-4.300000
20
-0.400000
0
SEQEND
8
2
0
TEXT
8
0
10
-4.480000
20
-0.390000
40
0.080000
41
1.000000
1
3
0
ENDSEC
0
EOF

